<mxfile host="Electron" agent="Mozilla/5.0 (Windows NT 10.0; WOW64) AppleWebKit/537.36 (KHTML, like Gecko) draw.io/24.7.8 Chrome/128.0.6613.36 Electron/32.0.1 Safari/537.36" version="24.7.8">
  <diagram name="Page-1" id="8vsXMIywaYMLLKCE55-B">
    <mxGraphModel dx="1615" dy="955" grid="1" gridSize="10" guides="1" tooltips="1" connect="1" arrows="1" fold="1" page="1" pageScale="1" pageWidth="850" pageHeight="1100" math="0" shadow="0">
      <root>
        <mxCell id="0" />
        <mxCell id="1" parent="0" />
        <mxCell id="m6MY4QF2CiB_X67fFpfR-1" value="&lt;font style=&quot;font-size: 15px;&quot;&gt;Feedback&lt;/font&gt;" style="swimlane;fontStyle=1;align=center;verticalAlign=top;childLayout=stackLayout;horizontal=1;startSize=26;horizontalStack=0;resizeParent=1;resizeParentMax=0;resizeLast=0;collapsible=1;marginBottom=0;whiteSpace=wrap;html=1;fillColor=#1ba1e2;fontColor=#ffffff;strokeColor=#006EAF;" parent="1" vertex="1">
          <mxGeometry x="66" y="105" width="160" height="150" as="geometry" />
        </mxCell>
        <mxCell id="m6MY4QF2CiB_X67fFpfR-2" value="&lt;u&gt;Description&lt;/u&gt;&lt;div&gt;Rating/10&lt;/div&gt;" style="text;strokeColor=none;fillColor=none;align=left;verticalAlign=top;spacingLeft=4;spacingRight=4;overflow=hidden;rotatable=0;points=[[0,0.5],[1,0.5]];portConstraint=eastwest;whiteSpace=wrap;html=1;" parent="m6MY4QF2CiB_X67fFpfR-1" vertex="1">
          <mxGeometry y="26" width="160" height="44" as="geometry" />
        </mxCell>
        <mxCell id="m6MY4QF2CiB_X67fFpfR-3" value="" style="line;strokeWidth=1;fillColor=none;align=left;verticalAlign=middle;spacingTop=-1;spacingLeft=3;spacingRight=3;rotatable=0;labelPosition=right;points=[];portConstraint=eastwest;strokeColor=inherit;" parent="m6MY4QF2CiB_X67fFpfR-1" vertex="1">
          <mxGeometry y="70" width="160" height="8" as="geometry" />
        </mxCell>
        <mxCell id="m6MY4QF2CiB_X67fFpfR-4" value="+ getRating();&lt;br&gt;+ setNewRating();&lt;div&gt;+ getDescription&lt;span style=&quot;background-color: initial;&quot;&gt;();&lt;/span&gt;&lt;div&gt;+ setNewDescription&lt;span style=&quot;background-color: initial;&quot;&gt;();&lt;/span&gt;&lt;/div&gt;&lt;div&gt;&lt;br&gt;&lt;/div&gt;&lt;/div&gt;" style="text;strokeColor=none;fillColor=none;align=left;verticalAlign=top;spacingLeft=4;spacingRight=4;overflow=hidden;rotatable=0;points=[[0,0.5],[1,0.5]];portConstraint=eastwest;whiteSpace=wrap;html=1;" parent="m6MY4QF2CiB_X67fFpfR-1" vertex="1">
          <mxGeometry y="78" width="160" height="72" as="geometry" />
        </mxCell>
        <mxCell id="m6MY4QF2CiB_X67fFpfR-5" value="&lt;font style=&quot;font-size: 18px;&quot;&gt;UML&lt;/font&gt;" style="text;align=center;fontStyle=1;verticalAlign=middle;spacingLeft=3;spacingRight=3;strokeColor=#005700;rotatable=0;points=[[0,0.5],[1,0.5]];portConstraint=eastwest;html=1;fillColor=#008a00;fontColor=#ffffff;" parent="1" vertex="1">
          <mxGeometry x="345" y="10" width="160" height="50" as="geometry" />
        </mxCell>
        <mxCell id="m6MY4QF2CiB_X67fFpfR-6" value="&lt;span style=&quot;font-size: 15px;&quot;&gt;Member&lt;/span&gt;" style="swimlane;fontStyle=1;align=center;verticalAlign=top;childLayout=stackLayout;horizontal=1;startSize=26;horizontalStack=0;resizeParent=1;resizeParentMax=0;resizeLast=0;collapsible=1;marginBottom=0;whiteSpace=wrap;html=1;fillColor=#1ba1e2;fontColor=#ffffff;strokeColor=#006EAF;" parent="1" vertex="1">
          <mxGeometry x="626" y="445" width="160" height="110" as="geometry" />
        </mxCell>
        <mxCell id="m6MY4QF2CiB_X67fFpfR-7" value="&lt;u&gt;Library Card&lt;/u&gt;" style="text;strokeColor=none;fillColor=none;align=left;verticalAlign=top;spacingLeft=4;spacingRight=4;overflow=hidden;rotatable=0;points=[[0,0.5],[1,0.5]];portConstraint=eastwest;whiteSpace=wrap;html=1;" parent="m6MY4QF2CiB_X67fFpfR-6" vertex="1">
          <mxGeometry y="26" width="160" height="34" as="geometry" />
        </mxCell>
        <mxCell id="m6MY4QF2CiB_X67fFpfR-8" value="" style="line;strokeWidth=1;fillColor=none;align=left;verticalAlign=middle;spacingTop=-1;spacingLeft=3;spacingRight=3;rotatable=0;labelPosition=right;points=[];portConstraint=eastwest;strokeColor=inherit;" parent="m6MY4QF2CiB_X67fFpfR-6" vertex="1">
          <mxGeometry y="60" width="160" height="8" as="geometry" />
        </mxCell>
        <mxCell id="m6MY4QF2CiB_X67fFpfR-9" value="+ setCardState();&lt;div&gt;+ getCardState();&lt;/div&gt;" style="text;strokeColor=none;fillColor=none;align=left;verticalAlign=top;spacingLeft=4;spacingRight=4;overflow=hidden;rotatable=0;points=[[0,0.5],[1,0.5]];portConstraint=eastwest;whiteSpace=wrap;html=1;" parent="m6MY4QF2CiB_X67fFpfR-6" vertex="1">
          <mxGeometry y="68" width="160" height="42" as="geometry" />
        </mxCell>
        <mxCell id="m6MY4QF2CiB_X67fFpfR-10" value="&lt;span style=&quot;font-size: 15px;&quot;&gt;Employees&lt;/span&gt;" style="swimlane;fontStyle=1;align=center;verticalAlign=top;childLayout=stackLayout;horizontal=1;startSize=26;horizontalStack=0;resizeParent=1;resizeParentMax=0;resizeLast=0;collapsible=1;marginBottom=0;whiteSpace=wrap;html=1;fillColor=#1ba1e2;fontColor=#ffffff;strokeColor=#006EAF;" parent="1" vertex="1">
          <mxGeometry x="541" y="745" width="160" height="250" as="geometry" />
        </mxCell>
        <mxCell id="m6MY4QF2CiB_X67fFpfR-11" value="&lt;div&gt;&lt;u&gt;Employees ID&amp;nbsp;&lt;/u&gt;&lt;/div&gt;&lt;div&gt;&lt;u&gt;&lt;br&gt;&lt;/u&gt;&lt;/div&gt;&lt;div&gt;EmployeesName: Name_Dom&lt;/div&gt;&lt;div&gt;&amp;nbsp; firstName&lt;/div&gt;&lt;div&gt;&amp;nbsp; lastName&lt;/div&gt;&lt;div&gt;&lt;br&gt;&lt;/div&gt;&lt;div&gt;&lt;span style=&quot;background-color: initial;&quot;&gt;Employees salary&lt;/span&gt;&lt;/div&gt;&lt;div&gt;&lt;span style=&quot;background-color: initial;&quot;&gt;Employee Contact&lt;/span&gt;&lt;/div&gt;" style="text;strokeColor=none;fillColor=none;align=left;verticalAlign=top;spacingLeft=4;spacingRight=4;overflow=hidden;rotatable=0;points=[[0,0.5],[1,0.5]];portConstraint=eastwest;whiteSpace=wrap;html=1;" parent="m6MY4QF2CiB_X67fFpfR-10" vertex="1">
          <mxGeometry y="26" width="160" height="144" as="geometry" />
        </mxCell>
        <mxCell id="m6MY4QF2CiB_X67fFpfR-12" value="" style="line;strokeWidth=1;fillColor=none;align=left;verticalAlign=middle;spacingTop=-1;spacingLeft=3;spacingRight=3;rotatable=0;labelPosition=right;points=[];portConstraint=eastwest;strokeColor=inherit;" parent="m6MY4QF2CiB_X67fFpfR-10" vertex="1">
          <mxGeometry y="170" width="160" height="10" as="geometry" />
        </mxCell>
        <mxCell id="m6MY4QF2CiB_X67fFpfR-13" value="&lt;div&gt;&lt;span style=&quot;background-color: initial;&quot;&gt;+ geEmployeesID();&lt;/span&gt;&lt;br&gt;&lt;/div&gt;&lt;div&gt;+ getEmployeesName();&lt;/div&gt;&lt;div&gt;&lt;span style=&quot;background-color: initial;&quot;&gt;+ updateEmployeesData();&lt;/span&gt;&lt;/div&gt;&lt;div&gt;+ getSalary();&lt;/div&gt;" style="text;strokeColor=none;fillColor=none;align=left;verticalAlign=top;spacingLeft=4;spacingRight=4;overflow=hidden;rotatable=0;points=[[0,0.5],[1,0.5]];portConstraint=eastwest;whiteSpace=wrap;html=1;" parent="m6MY4QF2CiB_X67fFpfR-10" vertex="1">
          <mxGeometry y="180" width="160" height="70" as="geometry" />
        </mxCell>
        <mxCell id="m6MY4QF2CiB_X67fFpfR-86" style="edgeStyle=orthogonalEdgeStyle;rounded=0;orthogonalLoop=1;jettySize=auto;html=1;endArrow=ERmany;endFill=0;startArrow=ERzeroToMany;startFill=0;" parent="1" source="m6MY4QF2CiB_X67fFpfR-17" target="m6MY4QF2CiB_X67fFpfR-6" edge="1">
          <mxGeometry relative="1" as="geometry" />
        </mxCell>
        <mxCell id="m6MY4QF2CiB_X67fFpfR-94" style="edgeStyle=orthogonalEdgeStyle;rounded=0;orthogonalLoop=1;jettySize=auto;html=1;endArrow=ERmany;endFill=0;startArrow=ERzeroToMany;startFill=0;" parent="1" source="m6MY4QF2CiB_X67fFpfR-17" target="m6MY4QF2CiB_X67fFpfR-28" edge="1">
          <mxGeometry relative="1" as="geometry" />
        </mxCell>
        <mxCell id="m6MY4QF2CiB_X67fFpfR-17" value="&lt;font style=&quot;font-size: 15px;&quot;&gt;Book&lt;/font&gt;" style="swimlane;fontStyle=1;align=center;verticalAlign=top;childLayout=stackLayout;horizontal=1;startSize=26;horizontalStack=0;resizeParent=1;resizeParentMax=0;resizeLast=0;collapsible=1;marginBottom=0;whiteSpace=wrap;html=1;fillColor=#1ba1e2;fontColor=#ffffff;strokeColor=#006EAF;" parent="1" vertex="1">
          <mxGeometry x="340" y="395" width="160" height="210" as="geometry" />
        </mxCell>
        <mxCell id="m6MY4QF2CiB_X67fFpfR-18" value="&lt;div&gt;&lt;u&gt;Book ID&lt;/u&gt;&lt;/div&gt;&lt;div&gt;Book Name&lt;/div&gt;&lt;div&gt;Book Availablitiy&lt;/div&gt;&lt;div&gt;Book Count&lt;/div&gt;&lt;div&gt;&lt;br&gt;&lt;/div&gt;&lt;div&gt;&lt;br&gt;&lt;/div&gt;" style="text;strokeColor=none;fillColor=none;align=left;verticalAlign=top;spacingLeft=4;spacingRight=4;overflow=hidden;rotatable=0;points=[[0,0.5],[1,0.5]];portConstraint=eastwest;whiteSpace=wrap;html=1;" parent="m6MY4QF2CiB_X67fFpfR-17" vertex="1">
          <mxGeometry y="26" width="160" height="74" as="geometry" />
        </mxCell>
        <mxCell id="m6MY4QF2CiB_X67fFpfR-19" value="" style="line;strokeWidth=1;fillColor=none;align=left;verticalAlign=middle;spacingTop=-1;spacingLeft=3;spacingRight=3;rotatable=0;labelPosition=right;points=[];portConstraint=eastwest;strokeColor=inherit;" parent="m6MY4QF2CiB_X67fFpfR-17" vertex="1">
          <mxGeometry y="100" width="160" height="8" as="geometry" />
        </mxCell>
        <mxCell id="m6MY4QF2CiB_X67fFpfR-20" value="+ addNewBook();&lt;div&gt;+ updateBookData();&lt;/div&gt;&lt;div&gt;+ removeBook();&lt;/div&gt;&lt;div&gt;+ getBookID();&lt;/div&gt;&lt;div&gt;+ getBookName();&lt;/div&gt;&lt;div&gt;+ isBorrowed();&lt;/div&gt;" style="text;strokeColor=none;fillColor=none;align=left;verticalAlign=top;spacingLeft=4;spacingRight=4;overflow=hidden;rotatable=0;points=[[0,0.5],[1,0.5]];portConstraint=eastwest;whiteSpace=wrap;html=1;" parent="m6MY4QF2CiB_X67fFpfR-17" vertex="1">
          <mxGeometry y="108" width="160" height="102" as="geometry" />
        </mxCell>
        <mxCell id="m6MY4QF2CiB_X67fFpfR-21" value="&lt;font style=&quot;font-size: 15px;&quot;&gt;Author&lt;/font&gt;" style="swimlane;fontStyle=1;align=center;verticalAlign=top;childLayout=stackLayout;horizontal=1;startSize=26;horizontalStack=0;resizeParent=1;resizeParentMax=0;resizeLast=0;collapsible=1;marginBottom=0;whiteSpace=wrap;html=1;fillColor=#1ba1e2;fontColor=#ffffff;strokeColor=#006EAF;" parent="1" vertex="1">
          <mxGeometry x="63" y="395" width="160" height="230" as="geometry" />
        </mxCell>
        <mxCell id="m6MY4QF2CiB_X67fFpfR-22" value="&lt;u&gt;ID&lt;/u&gt;&lt;div&gt;Country&lt;br&gt;&lt;div&gt;&lt;span style=&quot;background-color: initial;&quot;&gt;Name: Name_Dom&lt;/span&gt;&lt;div&gt;&lt;div&gt;&amp;nbsp; firstName&lt;/div&gt;&lt;div&gt;&amp;nbsp; lastName&lt;/div&gt;&lt;/div&gt;&lt;/div&gt;&lt;/div&gt;" style="text;strokeColor=none;fillColor=none;align=left;verticalAlign=top;spacingLeft=4;spacingRight=4;overflow=hidden;rotatable=0;points=[[0,0.5],[1,0.5]];portConstraint=eastwest;whiteSpace=wrap;html=1;" parent="m6MY4QF2CiB_X67fFpfR-21" vertex="1">
          <mxGeometry y="26" width="160" height="94" as="geometry" />
        </mxCell>
        <mxCell id="m6MY4QF2CiB_X67fFpfR-23" value="" style="line;strokeWidth=1;fillColor=none;align=left;verticalAlign=middle;spacingTop=-1;spacingLeft=3;spacingRight=3;rotatable=0;labelPosition=right;points=[];portConstraint=eastwest;strokeColor=inherit;" parent="m6MY4QF2CiB_X67fFpfR-21" vertex="1">
          <mxGeometry y="120" width="160" height="8" as="geometry" />
        </mxCell>
        <mxCell id="m6MY4QF2CiB_X67fFpfR-24" value="+ getAuthorID();&lt;div&gt;+ getAuthorData();&lt;/div&gt;&lt;div&gt;+ addNewAuthor();&lt;/div&gt;&lt;div&gt;+ updateAuthorData();&lt;/div&gt;&lt;div&gt;+ removeAuthor();&lt;/div&gt;&lt;div&gt;+ numberOfOwnBooks();&lt;/div&gt;" style="text;strokeColor=none;fillColor=none;align=left;verticalAlign=top;spacingLeft=4;spacingRight=4;overflow=hidden;rotatable=0;points=[[0,0.5],[1,0.5]];portConstraint=eastwest;whiteSpace=wrap;html=1;" parent="m6MY4QF2CiB_X67fFpfR-21" vertex="1">
          <mxGeometry y="128" width="160" height="102" as="geometry" />
        </mxCell>
        <mxCell id="m6MY4QF2CiB_X67fFpfR-25" value="&lt;font style=&quot;font-size: 15px;&quot;&gt;Customer&lt;/font&gt;" style="swimlane;fontStyle=1;align=center;verticalAlign=top;childLayout=stackLayout;horizontal=1;startSize=26;horizontalStack=0;resizeParent=1;resizeParentMax=0;resizeLast=0;collapsible=1;marginBottom=0;whiteSpace=wrap;html=1;fillColor=#1ba1e2;fontColor=#ffffff;strokeColor=#006EAF;" parent="1" vertex="1">
          <mxGeometry x="616" y="105" width="157.5" height="240" as="geometry" />
        </mxCell>
        <mxCell id="m6MY4QF2CiB_X67fFpfR-26" value="&lt;u&gt;Custtomer ID&lt;/u&gt;&lt;div&gt;&lt;div&gt;Customer Contect&lt;/div&gt;&lt;div&gt;Cutomer First Name&lt;br&gt;&lt;div&gt;&lt;/div&gt;&lt;div&gt;: Name_Dom&lt;/div&gt;&lt;div&gt;&amp;nbsp; firstName&lt;/div&gt;&lt;div&gt;&amp;nbsp; lastName&lt;/div&gt;&lt;/div&gt;&lt;/div&gt;" style="text;strokeColor=none;fillColor=none;align=left;verticalAlign=top;spacingLeft=4;spacingRight=4;overflow=hidden;rotatable=0;points=[[0,0.5],[1,0.5]];portConstraint=eastwest;whiteSpace=wrap;html=1;" parent="m6MY4QF2CiB_X67fFpfR-25" vertex="1">
          <mxGeometry y="26" width="157.5" height="104" as="geometry" />
        </mxCell>
        <mxCell id="m6MY4QF2CiB_X67fFpfR-27" value="" style="line;strokeWidth=1;fillColor=none;align=left;verticalAlign=middle;spacingTop=-1;spacingLeft=3;spacingRight=3;rotatable=0;labelPosition=right;points=[];portConstraint=eastwest;strokeColor=inherit;" parent="m6MY4QF2CiB_X67fFpfR-25" vertex="1">
          <mxGeometry y="130" width="157.5" height="8" as="geometry" />
        </mxCell>
        <mxCell id="m6MY4QF2CiB_X67fFpfR-28" value="+ newCustomer();&lt;div&gt;+ removeCustomer();&lt;/div&gt;&lt;div&gt;+ updateCustomerData();&lt;/div&gt;&lt;div&gt;+ getCustomerData();&lt;/div&gt;&lt;div&gt;+ bookBorrow();&lt;/div&gt;" style="text;strokeColor=none;fillColor=none;align=left;verticalAlign=top;spacingLeft=4;spacingRight=4;overflow=hidden;rotatable=0;points=[[0,0.5],[1,0.5]];portConstraint=eastwest;whiteSpace=wrap;html=1;" parent="m6MY4QF2CiB_X67fFpfR-25" vertex="1">
          <mxGeometry y="138" width="157.5" height="102" as="geometry" />
        </mxCell>
        <mxCell id="m6MY4QF2CiB_X67fFpfR-33" value="&lt;span style=&quot;font-size: 15px;&quot;&gt;Publisher&lt;/span&gt;" style="swimlane;fontStyle=1;align=center;verticalAlign=top;childLayout=stackLayout;horizontal=1;startSize=26;horizontalStack=0;resizeParent=1;resizeParentMax=0;resizeLast=0;collapsible=1;marginBottom=0;whiteSpace=wrap;html=1;fillColor=#1ba1e2;fontColor=#ffffff;strokeColor=#006EAF;" parent="1" vertex="1">
          <mxGeometry x="204" y="735" width="160" height="170" as="geometry" />
        </mxCell>
        <mxCell id="m6MY4QF2CiB_X67fFpfR-34" value="&lt;div&gt;&lt;u style=&quot;background-color: initial;&quot;&gt;Publisher ID&lt;/u&gt;&lt;/div&gt;&lt;div&gt;Publisher Name&lt;/div&gt;&lt;div&gt;Publisher Country&amp;nbsp;&lt;span style=&quot;background-color: initial;&quot;&gt;&amp;nbsp;&lt;/span&gt;&lt;span style=&quot;background-color: initial; text-wrap: nowrap; color: rgba(0, 0, 0, 0); font-family: monospace; font-size: 0px;&quot;&gt;%3CmxGraphModel%3E%3Croot%3E%3CmxCell%20id%3D%220%22%2F%3E%3CmxCell%20id%3D%221%22%20parent%3D%220%22%2F%3E%3CmxCell%20id%3D%222%22%20value%3D%22%26lt%3Bdiv%26gt%3BLocation%3A%20location_Dom%26lt%3B%2Fdiv%26gt%3B%26lt%3Bdiv%26gt%3B%26amp%3Bnbsp%3B%20City%26lt%3B%2Fdiv%26gt%3B%26lt%3Bdiv%26gt%3B%26amp%3Bnbsp%3B%20Street%26lt%3B%2Fdiv%26gt%3B%22%20style%3D%22text%3BstrokeColor%3Dnone%3BfillColor%3Dnone%3Balign%3Dleft%3BverticalAlign%3Dtop%3BspacingLeft%3D4%3BspacingRight%3D4%3Boverflow%3Dhidden%3Brotatable%3D0%3Bpoints%3D%5B%5B0%2C0.5%5D%2C%5B1%2C0.5%5D%5D%3BportConstraint%3Deastwest%3BwhiteSpace%3Dwrap%3Bhtml%3D1%3B%22%20vertex%3D%221%22%20parent%3D%221%22%3E%3CmxGeometry%20x%3D%22100%22%20y%3D%22923%22%20width%3D%22160%22%20height%3D%2254%22%20as%3D%22geometry%22%2F%3E%3C%2FmxCell%3E%3C%2Froot%3E%3C%2FmxGraphModel%3E&lt;/span&gt;&lt;/div&gt;" style="text;strokeColor=none;fillColor=none;align=left;verticalAlign=top;spacingLeft=4;spacingRight=4;overflow=hidden;rotatable=0;points=[[0,0.5],[1,0.5]];portConstraint=eastwest;whiteSpace=wrap;html=1;" parent="m6MY4QF2CiB_X67fFpfR-33" vertex="1">
          <mxGeometry y="26" width="160" height="54" as="geometry" />
        </mxCell>
        <mxCell id="m6MY4QF2CiB_X67fFpfR-35" value="" style="line;strokeWidth=1;fillColor=none;align=left;verticalAlign=middle;spacingTop=-1;spacingLeft=3;spacingRight=3;rotatable=0;labelPosition=right;points=[];portConstraint=eastwest;strokeColor=inherit;" parent="m6MY4QF2CiB_X67fFpfR-33" vertex="1">
          <mxGeometry y="80" width="160" height="8" as="geometry" />
        </mxCell>
        <mxCell id="m6MY4QF2CiB_X67fFpfR-36" value="&lt;div&gt;&lt;div&gt;&lt;span style=&quot;background-color: initial;&quot;&gt;+ getPublisherID();&lt;/span&gt;&lt;br&gt;&lt;/div&gt;&lt;div&gt;+ getPublisherData();&lt;/div&gt;&lt;div&gt;+ addNewPublisher();&lt;/div&gt;&lt;div&gt;+ updatePublisherData();&lt;/div&gt;&lt;div&gt;+ removePublisher();&lt;/div&gt;&lt;/div&gt;" style="text;strokeColor=none;fillColor=none;align=left;verticalAlign=top;spacingLeft=4;spacingRight=4;overflow=hidden;rotatable=0;points=[[0,0.5],[1,0.5]];portConstraint=eastwest;whiteSpace=wrap;html=1;" parent="m6MY4QF2CiB_X67fFpfR-33" vertex="1">
          <mxGeometry y="88" width="160" height="82" as="geometry" />
        </mxCell>
        <mxCell id="m6MY4QF2CiB_X67fFpfR-110" style="edgeStyle=orthogonalEdgeStyle;rounded=0;orthogonalLoop=1;jettySize=auto;html=1;exitX=0.5;exitY=1;exitDx=0;exitDy=0;" parent="1" source="m6MY4QF2CiB_X67fFpfR-50" edge="1">
          <mxGeometry relative="1" as="geometry">
            <mxPoint x="323" y="260" as="targetPoint" />
            <mxPoint x="323" y="182" as="sourcePoint" />
          </mxGeometry>
        </mxCell>
        <mxCell id="m6MY4QF2CiB_X67fFpfR-50" value="Provid" style="swimlane;fontStyle=0;childLayout=stackLayout;horizontal=1;startSize=20;fillColor=#d80073;horizontalStack=0;resizeParent=1;resizeParentMax=0;resizeLast=0;collapsible=1;marginBottom=0;whiteSpace=wrap;html=1;fontColor=#ffffff;strokeColor=#A50040;" parent="1" vertex="1">
          <mxGeometry x="276" y="125" width="94" height="52" as="geometry" />
        </mxCell>
        <mxCell id="m6MY4QF2CiB_X67fFpfR-102" style="edgeStyle=orthogonalEdgeStyle;rounded=0;orthogonalLoop=1;jettySize=auto;html=1;exitX=1;exitY=0.5;exitDx=0;exitDy=0;" parent="1" source="m6MY4QF2CiB_X67fFpfR-54" edge="1">
          <mxGeometry relative="1" as="geometry">
            <mxPoint x="277" y="668" as="targetPoint" />
            <mxPoint x="211" y="668" as="sourcePoint" />
          </mxGeometry>
        </mxCell>
        <mxCell id="m6MY4QF2CiB_X67fFpfR-54" value="Publish" style="swimlane;fontStyle=0;childLayout=stackLayout;horizontal=1;startSize=26;fillColor=#d80073;horizontalStack=0;resizeParent=1;resizeParentMax=0;resizeLast=0;collapsible=1;marginBottom=0;whiteSpace=wrap;html=1;fontColor=#ffffff;strokeColor=#A50040;" parent="1" vertex="1">
          <mxGeometry x="118" y="642" width="87" height="52" as="geometry" />
        </mxCell>
        <mxCell id="m6MY4QF2CiB_X67fFpfR-82" style="edgeStyle=orthogonalEdgeStyle;rounded=0;orthogonalLoop=1;jettySize=auto;html=1;endArrow=ERmany;endFill=0;startArrow=ERone;startFill=0;entryX=1;entryY=0.5;entryDx=0;entryDy=0;" parent="1" source="m6MY4QF2CiB_X67fFpfR-27" target="m6MY4QF2CiB_X67fFpfR-4" edge="1">
          <mxGeometry relative="1" as="geometry">
            <mxPoint x="236" y="240" as="targetPoint" />
          </mxGeometry>
        </mxCell>
        <mxCell id="m6MY4QF2CiB_X67fFpfR-87" value="Borrows" style="swimlane;fontStyle=0;childLayout=stackLayout;horizontal=1;startSize=26;fillColor=#d80073;horizontalStack=0;resizeParent=1;resizeParentMax=0;resizeLast=0;collapsible=1;marginBottom=0;whiteSpace=wrap;html=1;fontColor=#ffffff;strokeColor=#A50040;" parent="1" vertex="1">
          <mxGeometry x="522" y="375" width="94" height="66" as="geometry" />
        </mxCell>
        <mxCell id="m6MY4QF2CiB_X67fFpfR-91" style="edgeStyle=orthogonalEdgeStyle;rounded=0;orthogonalLoop=1;jettySize=auto;html=1;exitX=0.5;exitY=1;exitDx=0;exitDy=0;" parent="m6MY4QF2CiB_X67fFpfR-87" source="m6MY4QF2CiB_X67fFpfR-87" edge="1">
          <mxGeometry relative="1" as="geometry">
            <mxPoint x="47" y="125" as="targetPoint" />
            <mxPoint x="47" y="71.24000000000001" as="sourcePoint" />
          </mxGeometry>
        </mxCell>
        <mxCell id="m6MY4QF2CiB_X67fFpfR-89" value="&lt;span style=&quot;background-color: initial;&quot;&gt;+Start Date&lt;/span&gt;&lt;div&gt;&lt;span style=&quot;background-color: initial;&quot;&gt;+End Date&lt;/span&gt;&lt;/div&gt;" style="text;html=1;align=center;verticalAlign=middle;resizable=0;points=[];autosize=1;strokeColor=none;fillColor=none;" parent="m6MY4QF2CiB_X67fFpfR-87" vertex="1">
          <mxGeometry y="26" width="94" height="40" as="geometry" />
        </mxCell>
        <mxCell id="m6MY4QF2CiB_X67fFpfR-90" style="edgeStyle=orthogonalEdgeStyle;rounded=0;orthogonalLoop=1;jettySize=auto;html=1;entryX=0.006;entryY=0.513;entryDx=0;entryDy=0;entryPerimeter=0;endArrow=ERoneToMany;endFill=0;startArrow=ERone;startFill=0;" parent="1" source="m6MY4QF2CiB_X67fFpfR-21" target="m6MY4QF2CiB_X67fFpfR-19" edge="1">
          <mxGeometry relative="1" as="geometry" />
        </mxCell>
        <mxCell id="m6MY4QF2CiB_X67fFpfR-93" style="edgeStyle=orthogonalEdgeStyle;rounded=0;orthogonalLoop=1;jettySize=auto;html=1;exitX=0.5;exitY=1;exitDx=0;exitDy=0;" parent="1" source="m6MY4QF2CiB_X67fFpfR-92" edge="1">
          <mxGeometry relative="1" as="geometry">
            <mxPoint x="283" y="500" as="targetPoint" />
            <mxPoint x="283" y="372" as="sourcePoint" />
          </mxGeometry>
        </mxCell>
        <mxCell id="m6MY4QF2CiB_X67fFpfR-92" value="Write By" style="swimlane;fontStyle=0;childLayout=stackLayout;horizontal=1;startSize=26;fillColor=#d80073;horizontalStack=0;resizeParent=1;resizeParentMax=0;resizeLast=0;collapsible=1;marginBottom=0;whiteSpace=wrap;html=1;fontColor=#ffffff;strokeColor=#A50040;" parent="1" vertex="1">
          <mxGeometry x="236" y="315" width="94" height="52" as="geometry" />
        </mxCell>
        <mxCell id="m6MY4QF2CiB_X67fFpfR-96" style="edgeStyle=orthogonalEdgeStyle;rounded=0;orthogonalLoop=1;jettySize=auto;html=1;entryX=0.573;entryY=0.993;entryDx=0;entryDy=0;entryPerimeter=0;" parent="1" source="m6MY4QF2CiB_X67fFpfR-6" target="m6MY4QF2CiB_X67fFpfR-28" edge="1">
          <mxGeometry relative="1" as="geometry" />
        </mxCell>
        <mxCell id="m6MY4QF2CiB_X67fFpfR-101" style="edgeStyle=orthogonalEdgeStyle;rounded=0;orthogonalLoop=1;jettySize=auto;html=1;entryX=0.454;entryY=0.002;entryDx=0;entryDy=0;entryPerimeter=0;startArrow=ERmany;startFill=0;endArrow=ERone;endFill=0;" parent="1" source="m6MY4QF2CiB_X67fFpfR-20" target="m6MY4QF2CiB_X67fFpfR-33" edge="1">
          <mxGeometry relative="1" as="geometry" />
        </mxCell>
        <mxCell id="m6MY4QF2CiB_X67fFpfR-104" style="edgeStyle=orthogonalEdgeStyle;rounded=0;orthogonalLoop=1;jettySize=auto;html=1;entryX=0.279;entryY=-0.003;entryDx=0;entryDy=0;entryPerimeter=0;endArrow=ERone;endFill=0;startArrow=ERzeroToMany;startFill=0;" parent="1" source="m6MY4QF2CiB_X67fFpfR-20" target="m6MY4QF2CiB_X67fFpfR-10" edge="1">
          <mxGeometry relative="1" as="geometry" />
        </mxCell>
        <mxCell id="m6MY4QF2CiB_X67fFpfR-108" style="edgeStyle=orthogonalEdgeStyle;rounded=0;orthogonalLoop=1;jettySize=auto;html=1;" parent="1" source="m6MY4QF2CiB_X67fFpfR-107" edge="1">
          <mxGeometry relative="1" as="geometry">
            <mxPoint x="586" y="671" as="targetPoint" />
          </mxGeometry>
        </mxCell>
        <mxCell id="m6MY4QF2CiB_X67fFpfR-107" value="Adds" style="swimlane;fontStyle=0;childLayout=stackLayout;horizontal=1;startSize=26;fillColor=#d80073;horizontalStack=0;resizeParent=1;resizeParentMax=0;resizeLast=0;collapsible=1;marginBottom=0;whiteSpace=wrap;html=1;fontColor=#ffffff;strokeColor=#A50040;" parent="1" vertex="1">
          <mxGeometry x="699" y="645" width="87" height="52" as="geometry" />
        </mxCell>
        <mxCell id="m6MY4QF2CiB_X67fFpfR-113" style="edgeStyle=orthogonalEdgeStyle;rounded=0;orthogonalLoop=1;jettySize=auto;html=1;" parent="1" source="m6MY4QF2CiB_X67fFpfR-112" edge="1">
          <mxGeometry relative="1" as="geometry">
            <mxPoint x="508.0000000000002" y="295" as="targetPoint" />
          </mxGeometry>
        </mxCell>
        <mxCell id="m6MY4QF2CiB_X67fFpfR-112" value="Purchase" style="swimlane;fontStyle=0;childLayout=stackLayout;horizontal=1;startSize=20;fillColor=#d80073;horizontalStack=0;resizeParent=1;resizeParentMax=0;resizeLast=0;collapsible=1;marginBottom=0;whiteSpace=wrap;html=1;fontColor=#ffffff;strokeColor=#A50040;" parent="1" vertex="1">
          <mxGeometry x="461" y="135" width="94" height="50" as="geometry" />
        </mxCell>
      </root>
    </mxGraphModel>
  </diagram>
</mxfile>
